<svg data-v-fde0c5aa="" xmlns="http://www.w3.org/2000/svg" viewBox="0 0 300 300" class="iconLeft"><!----><defs data-v-fde0c5aa=""><!----></defs><rect data-v-fde0c5aa="" fill="#EEF7EA" x="0" y="0" width="300px" height="300px" class="logo-background-square"></rect><defs data-v-fde0c5aa=""><!----></defs><g data-v-fde0c5aa="" id="c189ad0f-568c-4da1-9d3f-dc834e31276f" fill="#233B1A" transform="matrix(2.6014829809464572,0,0,2.6014829809464572,92.02224231075958,117.94973046864925)"><path d="M3.92 9.59L3.92 17.18L2.52 17.18L2.52 9.59L0.21 9.59L0.21 8.43L6.23 8.43L6.23 9.59L3.92 9.59ZM9.34 17.32L9.34 17.32Q8.08 17.32 7.44 17.02L7.44 17.02L7.44 17.02Q6.80 16.72 6.55 15.95L6.55 15.95L6.55 15.95Q6.30 15.18 6.30 13.68L6.30 13.68L6.30 13.68Q6.30 12.18 6.55 11.41L6.55 11.41L6.55 11.41Q6.80 10.64 7.44 10.34L7.44 10.34L7.44 10.34Q8.08 10.04 9.34 10.04L9.34 10.04L9.34 10.04Q10.61 10.04 11.24 10.34L11.24 10.34L11.24 10.34Q11.87 10.64 12.12 11.40L12.12 11.40L12.12 11.40Q12.38 12.17 12.38 13.68L12.38 13.68L12.38 13.68Q12.38 15.18 12.12 15.95L12.12 15.95L12.12 15.95Q11.87 16.72 11.24 17.02L11.24 17.02L11.24 17.02Q10.60 17.32 9.34 17.32L9.34 17.32ZM7.76 16.17L10.25 16.17L10.25 16.17Q10.65 16.17 10.79 16.10L10.79 16.10L10.79 16.10Q10.92 16.03 10.92 15.82L10.92 15.82L10.92 11.19L8.43 11.19L8.43 11.19Q8.02 11.19 7.89 11.26L7.89 11.26L7.89 11.26Q7.76 11.33 7.76 11.54L7.76 11.54L7.76 16.17ZM20.02 10.18L20.02 17.18L19.38 17.18L19.00 16.48L19.00 16.48Q18.44 16.91 17.77 17.12L17.77 17.12L17.77 17.12Q17.11 17.32 16.25 17.32L16.25 17.32L16.25 17.32Q15.30 17.32 14.85 16.96L14.85 16.96L14.85 16.96Q14.41 16.60 14.41 15.85L14.41 15.85L14.41 10.18L15.81 10.18L15.81 16.24L17.43 16.24L17.43 16.24Q18.12 16.24 18.37 16.07L18.37 16.07L18.37 16.07Q18.62 15.90 18.62 15.43L18.62 15.43L18.62 10.18L20.02 10.18ZM23.20 10.18L23.69 11.28L23.69 11.28Q24.32 10.72 24.77 10.42L24.77 10.42L24.77 10.42Q25.21 10.11 25.61 9.97L25.61 9.97L25.75 11.34L25.75 11.34Q25.28 11.48 24.79 11.73L24.79 11.73L24.79 11.73Q24.29 11.97 23.94 12.24L23.94 12.24L23.94 17.18L22.54 17.18L22.54 10.18L23.20 10.18ZM27.06 17.18L27.06 17.18ZM27.22 10.28L28.62 10.07L28.62 17.18L27.22 17.18L27.22 10.28ZM27.93 8.96L27.93 8.96Q27.41 8.96 27.24 8.79L27.24 8.79L27.24 8.79Q27.06 8.61 27.06 8.12L27.06 8.12L27.06 8.12Q27.06 7.62 27.24 7.43L27.24 7.43L27.24 7.43Q27.43 7.25 27.93 7.25L27.93 7.25L27.93 7.25Q28.42 7.25 28.60 7.43L28.60 7.43L28.60 7.43Q28.77 7.62 28.77 8.12L28.77 8.12L28.77 8.12Q28.77 8.61 28.60 8.79L28.60 8.79L28.60 8.79Q28.43 8.96 27.93 8.96L27.93 8.96ZM30.66 12.05L30.66 12.05Q30.66 10.98 31.30 10.47L31.30 10.47L31.30 10.47Q31.93 9.97 33.31 9.97L33.31 9.97L33.31 9.97Q34.52 9.97 35.63 10.28L35.63 10.28L35.43 11.30L35.43 11.30Q35.08 11.20 34.61 11.14L34.61 11.14L34.61 11.14Q34.13 11.07 33.73 11.07L33.73 11.07L33.73 11.07Q32.89 11.07 32.13 11.20L32.13 11.20L32.13 12.85L32.13 12.85Q33.81 13.09 34.60 13.34L34.60 13.34L34.60 13.34Q35.39 13.58 35.69 13.99L35.69 13.99L35.69 13.99Q35.98 14.41 35.98 15.20L35.98 15.20L35.98 15.20Q35.98 16.00 35.69 16.48L35.69 16.48L35.69 16.48Q35.41 16.95 34.76 17.17L34.76 17.17L34.76 17.17Q34.12 17.39 33.04 17.39L33.04 17.39L33.04 17.39Q31.84 17.39 30.51 16.98L30.51 16.98L30.73 15.86L30.73 15.86Q31.81 16.28 33.03 16.28L33.03 16.28L33.03 16.28Q33.45 16.28 33.77 16.24L33.77 16.24L33.77 16.24Q34.09 16.20 34.51 16.09L34.51 16.09L34.51 14.43L34.51 14.43Q32.70 14.18 31.93 13.94L31.93 13.94L31.93 13.94Q31.16 13.71 30.91 13.31L30.91 13.31L30.91 13.31Q30.66 12.91 30.66 12.05L30.66 12.05ZM45.42 10.04L45.42 10.04Q46.40 10.04 46.90 10.34L46.90 10.34L46.90 10.34Q47.40 10.64 47.40 11.23L47.40 11.23L47.40 17.18L46.00 17.18L46.00 11.19L44.52 11.19L44.52 11.19Q43.90 11.19 43.65 11.31L43.65 11.31L43.65 11.31Q43.40 11.44 43.34 11.77L43.34 11.77L43.34 17.18L41.94 17.18L41.94 11.19L40.46 11.19L40.46 11.19Q39.77 11.19 39.52 11.35L39.52 11.35L39.52 11.35Q39.27 11.52 39.27 12.00L39.27 12.00L39.27 17.18L37.87 17.18L37.87 10.18L38.51 10.18L38.89 10.88L38.89 10.88Q39.40 10.44 39.99 10.24L39.99 10.24L39.99 10.24Q40.59 10.04 41.36 10.04L41.36 10.04L41.36 10.04Q42.80 10.04 43.20 10.68L43.20 10.68L43.20 10.68Q44.11 10.04 45.42 10.04L45.42 10.04ZM54.75 12.75L54.75 12.75Q55.37 12.96 55.71 13.48L55.71 13.48L55.71 13.48Q56.04 13.99 56.04 14.71L56.04 14.71L56.04 14.71Q56.04 15.90 55.43 16.54L55.43 16.54L55.43 16.54Q54.82 17.18 53.66 17.18L53.66 17.18L49.85 17.18L49.85 8.43L53.21 8.43L53.21 8.43Q54.45 8.43 55.03 8.95L55.03 8.95L55.03 8.95Q55.61 9.48 55.61 10.60L55.61 10.60L55.61 10.60Q55.61 11.38 55.41 11.87L55.41 11.87L55.41 11.87Q55.20 12.36 54.75 12.67L54.75 12.67L54.75 12.75ZM54.21 10.88L54.21 10.88Q54.21 10.07 53.97 9.76L53.97 9.76L53.97 9.76Q53.73 9.45 53.10 9.45L53.10 9.45L51.25 9.45L51.25 12.28L53.09 12.28L53.09 12.28Q53.72 12.28 53.96 11.97L53.96 11.97L53.96 11.97Q54.21 11.66 54.21 10.88L54.21 10.88ZM53.47 16.16L53.47 16.16Q54.10 16.16 54.37 15.80L54.37 15.80L54.37 15.80Q54.64 15.44 54.64 14.63L54.64 14.63L54.64 14.63Q54.64 13.89 54.38 13.57L54.38 13.57L54.38 13.57Q54.11 13.26 53.48 13.26L53.48 13.26L51.25 13.26L51.25 16.16L53.47 16.16ZM58.00 8.43L61.14 8.43L61.14 8.43Q62.61 8.43 63.32 8.77L63.32 8.77L63.32 8.77Q64.04 9.11 64.30 10.02L64.30 10.02L64.30 10.02Q64.57 10.92 64.57 12.81L64.57 12.81L64.57 12.81Q64.57 14.69 64.30 15.59L64.30 15.59L64.30 15.59Q64.04 16.49 63.32 16.84L63.32 16.84L63.32 16.84Q62.61 17.18 61.14 17.18L61.14 17.18L58.00 17.18L58.00 8.43ZM59.40 9.59L59.40 16.02L61.96 16.02L61.96 16.02Q62.58 16.02 62.82 15.79L62.82 15.79L62.82 15.79Q63.06 15.57 63.06 14.99L63.06 14.99L63.06 10.61L63.06 10.61Q63.06 10.04 62.82 9.81L62.82 9.81L62.82 9.81Q62.58 9.59 61.96 9.59L61.96 9.59L59.40 9.59Z"></path></g><defs data-v-fde0c5aa=""><linearGradient data-v-fde0c5aa="" gradientTransform="rotate(25)" id="1f758e6c-5a27-40b1-b187-8edc1c8616eb" x1="0%" y1="0%" x2="100%" y2="0%"><stop data-v-fde0c5aa="" offset="0%" stop-color="#2F8632" stop-opacity="1"></stop><stop data-v-fde0c5aa="" offset="100%" stop-color="#BEFF7F" stop-opacity="1"></stop></linearGradient></defs><g data-v-fde0c5aa="" id="c911cf0e-f440-4287-8202-a6b7d62291b3" stroke="none" fill="url(#1f758e6c-5a27-40b1-b187-8edc1c8616eb)" transform="matrix(1.236517304952088,0,0,1.236517304952088,40,130.2157231207666)"><path d="M9.382 8.675h13.943v13.943L32 31.293V0H.707zM22.618 23.325H8.675V9.382L0 .707V32h31.293z"></path></g><!----></svg>